HIERARCHY
ROOT Hips
{
	OFFSET -3.958830 18.904000 13.208200
	CHANNELS 6 Xposition Yposition Zposition Zrotation Yrotation Xrotation 
	JOINT LHipJoint
	{
		OFFSET 0.000000 0.000000 0.000000
		CHANNELS 3 Zrotation Yrotation Xrotation
		JOINT LeftUpLeg
		{
			OFFSET 1.800000 -1.400000 0.085000
			CHANNELS 3 Zrotation Yrotation Xrotation
			JOINT LeftLeg
			{
				OFFSET 2.215000 -6.000000 0.000000
				CHANNELS 3 Zrotation Yrotation Xrotation
				JOINT LeftFoot
				{
					OFFSET 2.500000 -6.900000 0.000000
					CHANNELS 3 Zrotation Yrotation Xrotation
					JOINT LeftToeBase
					{
						OFFSET 0.200000 -0.500000 1.950000
						CHANNELS 3 Zrotation Yrotation Xrotation
						End Site
						{
							OFFSET 0.000000 0.000000 0.000000
						}
					}
				}
			}
		}
	}
	JOINT RHipJoint
	{
		OFFSET 0.000000 0.000000 0.000000
		CHANNELS 3 Zrotation Yrotation Xrotation
		JOINT RightUpLeg
		{
			OFFSET -1.800000 -1.400000 0.085000
			CHANNELS 3 Zrotation Yrotation Xrotation
			JOINT RightLeg
			{
				OFFSET -2.215000 -6.000000 0.000000
				CHANNELS 3 Zrotation Yrotation Xrotation
				JOINT RightFoot
				{
					OFFSET -2.500000 -6.900000 0.000000
					CHANNELS 3 Zrotation Yrotation Xrotation
					JOINT RightToeBase
					{
						OFFSET -0.200000 -0.500000 1.950000
						CHANNELS 3 Zrotation Yrotation Xrotation
						End Site
						{
							OFFSET 0.000000 0.000000 0.000000
						}
					}
				}
			}
		}
	}
	JOINT LowerBack
	{
		OFFSET 0.000000 0.000000 0.000000
		CHANNELS 3 Zrotation Yrotation Xrotation
		JOINT Spine
		{
			OFFSET -0.087000 1.940000 -0.288900
			CHANNELS 3 Zrotation Yrotation Xrotation
			JOINT Spine1
			{
				OFFSET 0.000000 1.950000 0.060000
				CHANNELS 3 Zrotation Yrotation Xrotation
				JOINT Neck
				{
					OFFSET 0.000000 0.000000 0.000000
					CHANNELS 3 Zrotation Yrotation Xrotation
					JOINT Neck1
					{
						OFFSET 0.000000 1.600000 0.340000
						CHANNELS 3 Zrotation Yrotation Xrotation
						JOINT Head
						{
							OFFSET 0.000000 1.667000 -0.240000
							CHANNELS 3 Zrotation Yrotation Xrotation
							End Site
							{
								OFFSET 0.000000 0.000000 0.000000
							}
						}
					}
				}
				JOINT LeftShoulder
				{
					OFFSET 0.000000 0.000000 0.000000
					CHANNELS 3 Zrotation Yrotation Xrotation
					JOINT LeftArm
					{
						OFFSET 2.700000 1.550000 -0.730000
						CHANNELS 3 Zrotation Yrotation Xrotation
						JOINT LeftForeArm
						{
							OFFSET 5.450000 0.000000 0.000000
							CHANNELS 3 Zrotation Yrotation Xrotation
							JOINT LeftHand
							{
								OFFSET 3.450000 0.000000 0.000000
								CHANNELS 3 Zrotation Yrotation Xrotation
								JOINT LeftHandIndex1
								{
									OFFSET 0.750000 0.000000 0.000000
									CHANNELS 3 Zrotation Yrotation Xrotation
									End Site
									{
										OFFSET 0.000000 0.000000 0.000000
									}
								}
							}
						}
					}
				}
				JOINT RightShoulder
				{
					OFFSET 0.000000 0.000000 0.000000
					CHANNELS 3 Zrotation Yrotation Xrotation
					JOINT RightArm
					{
						OFFSET -2.700000 1.550000 -0.730000
						CHANNELS 3 Zrotation Yrotation Xrotation
						JOINT RightForeArm
						{
							OFFSET -5.450000 0.000000 0.000000
							CHANNELS 3 Zrotation Yrotation Xrotation
							JOINT RightHand
							{
								OFFSET -3.450000 0.000000 0.000000
								CHANNELS 3 Zrotation Yrotation Xrotation
								JOINT RightHandIndex1
								{
									OFFSET -0.750000 0.000000 0.000000
									CHANNELS 3 Zrotation Yrotation Xrotation
									End Site
									{
										OFFSET 0.000000 0.000000 0.000000
									}
								}
							}
						}
					}
				}
			}
		}
	}
}
MOTION
Frames: 6
Frame Time: 0.016667
0.384420 17.636260 1.093170 -16.067328 7.106784 -3.541175 -15.258784 12.886054 1.925944 9.420963 -2.372141 -24.748443 13.136760 1.941513 26.039664 -0.548902 4.249651 3.147018 -0.008040 -0.310230 -0.087790 18.279910 -9.032650 5.491136 -6.239813 8.765777 -36.695497 83.687477 -49.211225 34.374832 -2.944137 -12.564962 0.455862 -0.168450 0.519410 0.157520 -3.489077 -2.531044 -8.918674 1.953781 0.291843 27.893940 -2.925053 1.879534 -5.527784 0.350565 -3.384851 -6.532787 -9.859430 2.381511 43.786134 6.725720 -3.882440 -8.551430 -24.321349 1.456372 -1.015309 -39.648942 -0.292488 -4.863449 -57.889676 -34.067182 14.922103 -3.746026 3.098239 0.665910 0.057950 -0.052510 0.145930 23.722653 2.645958 3.032209 46.463723 -3.997425 -11.071020 43.102998 29.741362 6.891243 2.215898 -1.272189 -0.359040 0.437890 0.292580 -0.063030 
0.380660 17.637190 1.102480 -15.945297 7.184754 -3.343325 -15.245893 12.865470 1.930338 9.281017 -2.413797 -24.716117 13.008128 1.949656 25.747198 -0.553310 4.200130 3.168367 -0.019510 -0.327410 -0.097800 18.288747 -9.056765 5.496581 -6.303393 8.582429 -37.388510 84.528935 -51.675227 35.404505 -2.994049 -12.746543 0.421352 -0.181000 0.523610 0.160340 -3.520400 -2.492811 -8.922021 2.162464 0.313082 27.688014 -3.193646 1.863809 -5.773351 0.370333 -3.474704 -6.609814 -10.081986 2.423827 43.797185 6.658570 -3.936590 -8.236150 -24.144613 1.678868 -1.058869 -40.008350 -0.252122 -4.892335 -57.228182 -34.057739 14.718234 -3.750175 3.090760 0.667930 0.062000 -0.056710 0.144890 23.479065 2.419053 3.146878 47.656169 -4.563055 -11.493195 42.803733 29.999850 6.839070 2.214036 -1.263879 -0.360020 0.432680 0.298630 -0.063550 
0.380250 17.649410 1.106970 -15.898714 7.223404 -3.290905 -15.227153 12.874951 1.925240 9.208536 -2.377648 -24.474732 12.797162 1.978914 25.331890 -0.545359 4.116347 3.197115 -0.013110 -0.316200 -0.090880 18.294052 -9.105140 5.485848 -6.356446 8.315423 -37.460326 84.614030 -54.647304 37.144200 -3.059073 -12.930742 0.378138 -0.185990 0.505700 0.161800 -3.556299 -2.474002 -8.916707 2.507069 0.247890 27.710881 -3.497888 1.799657 -5.955526 0.426678 -3.615775 -6.782748 -10.468477 2.571658 44.129332 6.656160 -3.864510 -8.405240 -24.135855 1.622711 -1.003272 -40.211410 -0.096148 -5.085664 -56.684225 -34.129992 14.526818 -3.731951 3.089885 0.672360 0.048080 -0.039800 0.145450 23.333452 2.512234 3.353380 48.662453 -5.017934 -11.941319 42.475078 30.320563 6.779302 2.224428 -1.257699 -0.346450 0.423390 0.287810 -0.060680 
0.381470 17.664820 1.111730 -15.824913 7.273865 -3.203799 -15.207428 12.871209 1.901867 9.174176 -2.296901 -24.164231 12.482824 2.044067 24.810663 -0.549689 4.038294 3.226862 -0.013780 -0.318610 -0.091710 18.305655 -9.114334 5.518308 -6.576292 8.336459 -37.601431 83.141369 -57.377360 39.869040 -3.123212 -13.162946 0.323772 -0.192580 0.500040 0.165050 -3.600991 -2.463613 -8.920892 2.928611 0.123941 27.727737 -3.840620 1.682866 -6.191164 0.458694 -3.808227 -6.884358 -10.927491 2.791406 44.344383 6.694230 -3.850430 -8.413380 -24.281473 1.627944 -1.007355 -40.170457 0.093934 -5.188824 -56.675851 -34.042479 14.445439 -3.723269 3.090575 0.678030 0.042120 -0.032760 0.145890 23.379265 2.546381 3.497520 49.376672 -5.409873 -12.267174 42.380805 30.584139 6.786297 2.227172 -1.252433 -0.341610 0.418410 0.286550 -0.059550 
0.388180 17.685850 1.112300 -16.139223 6.978387 -3.202004 -15.163871 12.846415 1.838743 9.719019 -2.054183 -23.799451 11.856972 2.260566 24.315748 -0.549289 3.973866 3.242930 -0.014470 -0.310680 -0.102180 18.346623 -9.079100 5.615682 -6.962801 8.865122 -37.721486 79.760486 -59.661864 43.913993 -3.202861 -13.498446 0.248063 -0.193430 0.488060 0.154840 -3.715322 -2.417864 -8.948366 4.210390 -0.243291 27.892689 -4.593190 1.533582 -6.493969 0.541277 -4.240523 -7.028226 -11.858994 3.295691 44.701152 6.896480 -3.863840 -8.355680 -24.745265 1.560428 -1.026030 -39.870620 0.484619 -5.391401 -56.656334 -34.018215 14.371558 -3.705360 3.092967 0.676610 0.031480 -0.029970 0.144800 23.553322 2.783437 3.723100 49.765888 -5.799433 -12.560539 42.382922 30.965404 6.855367 2.230273 -1.250006 -0.334770 0.413860 0.284620 -0.056050 
0.390810 17.706820 1.111850 -16.429569 6.519273 -3.369060 -15.133734 12.832506 1.763364 10.378186 -1.771584 -23.339352 11.174178 2.517043 23.993809 -0.550608 3.956184 3.244720 -0.001970 -0.294690 -0.095760 18.380621 -9.000858 5.730632 -7.635701 9.624365 -37.804973 75.913391 -60.213422 47.445257 -3.282615 -13.818329 0.169533 -0.190040 0.474930 0.153350 -3.797863 -2.417397 -8.975680 5.292752 -0.517755 28.241597 -5.121435 1.487589 -6.582430 0.607997 -4.687169 -7.149652 -12.881237 3.720265 45.035972 7.006720 -3.926380 -8.826890 -25.106636 1.448179 -1.064831 -39.770920 0.644915 -5.574618 -56.608167 -34.029856 14.283081 -3.685594 3.089474 0.687470 0.016230 -0.016180 0.147210 23.676702 3.132222 3.939737 49.962830 -5.975777 -12.813783 42.584130 31.572265 7.057673 2.231404 -1.249420 -0.327670 0.415130 0.276950 -0.053860 
